<?xml version="1.0" standalone="no"?>
<!DOCTYPE svg PUBLIC "-//W3C//DTD SVG 20010904//EN"
 "http://www.w3.org/TR/2001/REC-SVG-20010904/DTD/svg10.dtd">
<svg version="1.0" xmlns="http://www.w3.org/2000/svg"
 width="920.000000pt" height="482.000000pt" viewBox="0 0 920.000000 482.000000"
 preserveAspectRatio="xMidYMid meet">

<g transform="translate(0.000000,482.000000) scale(0.100000,-0.100000)"
fill="#000000" stroke="none">
<path d="M2130 4794 c-224 -29 -545 -76 -549 -80 -2 -2 13 -4 34 -4 57 0 40
-7 -65 -29 -120 -25 -124 -29 -116 -141 6 -80 51 -480 61 -545 3 -20 2 -25 -4
-15 -5 8 -23 123 -41 255 -17 132 -34 242 -36 244 -10 11 -1 -89 36 -374 23
-170 65 -503 95 -740 64 -505 80 -601 105 -643 18 -29 24 -32 72 -32 29 0 158
14 286 31 128 17 235 29 237 27 4 -4 3 -11 -50 -426 -20 -152 -37 -277 -38
-278 -1 -1 -36 3 -77 8 -198 25 -323 -34 -305 -144 8 -44 58 -102 108 -123 29
-12 29 -13 9 -20 -28 -8 -20 -21 25 -40 59 -25 72 -18 33 17 -20 17 -27 28
-16 24 43 -15 1343 -157 1391 -152 27 3 72 17 99 30 28 14 52 24 53 22 2 -2
-7 -14 -19 -28 -52 -56 -52 -55 -30 -90 28 -45 81 -92 120 -108 57 -22 149 -8
232 36 83 43 166 119 176 160 10 41 -12 110 -56 175 -21 31 -61 101 -88 156
-57 111 -101 177 -133 194 -17 9 -15 3 11 -30 18 -23 30 -44 26 -48 -4 -4 -11
-1 -16 7 -8 13 -11 13 -22 -2 -15 -18 -58 -34 -58 -21 0 5 13 14 30 20 35 13
39 36 8 57 -18 13 -25 13 -56 0 -26 -11 -38 -11 -48 -3 -9 7 -36 10 -72 7 -57
-5 -112 11 -112 32 0 17 -36 11 -63 -10 -23 -18 -25 -24 -15 -46 9 -20 9 -30
-1 -46 -11 -18 -11 -20 4 -14 14 5 16 2 11 -20 -6 -21 -3 -27 14 -31 14 -4 19
-11 15 -23 -5 -17 17 -29 53 -30 19 0 62 50 62 72 0 15 4 17 16 10 23 -13 54
-3 83 25 24 24 41 30 41 14 0 -5 -9 -11 -20 -14 -28 -7 -25 -22 9 -46 55 -40
23 -112 -56 -127 -29 -5 -33 -8 -19 -16 11 -6 22 -6 30 1 9 7 16 7 24 -1 14
-14 46 -2 39 16 -3 8 3 25 14 37 11 13 17 30 13 41 -6 21 9 24 25 4 9 -10 8
-16 -4 -26 -20 -17 -19 -33 4 -54 15 -14 24 -15 40 -7 11 6 29 11 41 11 19 0
20 -2 6 -15 -8 -8 -23 -15 -34 -15 -21 0 -35 -31 -25 -57 7 -17 50 -36 65 -27
5 3 13 15 17 27 6 16 9 17 14 5 3 -10 -6 -28 -25 -47 -26 -27 -30 -36 -25 -67
4 -20 13 -44 22 -54 22 -24 19 -28 -19 -35 -44 -9 -87 12 -158 75 -37 33 -58
61 -66 88 -7 22 -26 52 -42 65 -32 27 -128 67 -160 67 -11 0 -20 4 -20 9 0 4
-11 6 -25 3 -33 -6 -95 35 -95 64 0 17 5 20 30 16 32 -5 74 22 67 42 -3 6 2
19 11 28 8 10 12 24 9 33 -9 22 -56 -1 -63 -32 -4 -13 -12 -23 -20 -23 -7 0
-18 -8 -23 -17 -9 -16 -10 -16 -11 -1 0 9 6 19 13 22 8 4 8 8 2 11 -6 3 -10
20 -8 38 2 17 19 178 38 357 19 179 39 366 43 415 9 94 2 131 -27 140 -9 2
-137 18 -286 35 -381 43 -375 42 -375 48 0 3 -24 197 -54 431 -55 427 -89 696
-106 846 -17 141 -60 378 -72 394 -34 46 -36 46 -198 25z m-320 -100 c-25 -7
-53 -14 -62 -14 -10 0 -18 -4 -18 -10 0 -5 27 -7 63 -5 l62 4 -50 -14 c-77
-20 -128 -19 -142 5 -9 13 -9 21 -2 26 14 8 103 21 154 22 l40 1 -45 -15z
m370 -76 c0 -16 -3 -19 -11 -11 -6 6 -8 16 -5 22 11 17 16 13 16 -11z m-40 -8
c0 -5 -5 -10 -11 -10 -5 0 -7 5 -4 10 3 6 8 10 11 10 2 0 4 -4 4 -10z m171
-37 c6 -15 13 -55 16 -89 5 -50 3 -62 -11 -67 -22 -9 -42 1 -60 28 -15 22 -14
25 2 34 15 9 15 10 -4 11 -16 0 -24 10 -33 41 -14 46 -14 44 19 58 42 17 60
13 71 -16z m-127 -5 c7 -7 19 -34 26 -60 8 -27 18 -48 23 -48 5 0 7 -6 4 -13
-3 -7 11 -29 30 -48 33 -32 35 -36 28 -84 -6 -52 -38 -95 -70 -95 -11 0 -15
-10 -15 -35 0 -19 -3 -35 -7 -34 -24 3 -51 -14 -46 -29 5 -16 5 -16 -8 0 -8 9
-23 18 -34 20 -10 2 -29 17 -40 34 -12 18 -27 29 -35 26 -9 -3 -5 6 9 22 28
29 19 33 -30 11 -42 -18 -62 -34 -77 -60 -11 -19 -11 -19 -12 3 0 52 -65 122
-137 151 -106 43 -234 -61 -233 -188 1 -44 35 -105 83 -147 66 -58 247 -279
247 -303 0 -12 -40 -61 -50 -61 -3 0 -32 30 -64 68 -31 37 -69 81 -84 98 -15
17 -36 42 -47 55 -11 13 -41 50 -68 82 -53 63 -62 87 -72 187 -5 56 -4 62 7
43 20 -33 33 -27 30 15 -6 74 76 161 178 188 l45 13 -50 1 -50 1 38 14 c21 8
45 11 53 8 12 -4 15 0 12 14 -2 13 8 30 29 47 l31 26 27 -32 c18 -21 25 -38
21 -54 -5 -19 -3 -21 17 -16 12 3 38 18 58 34 20 16 40 28 45 26 5 -2 25 9 45
25 36 27 59 34 59 19 0 -5 7 -17 15 -28 13 -17 13 -16 3 13 -11 29 -10 34 13
53 23 21 18 22 -26 4 -8 -3 -15 -1 -15 5 0 6 0 14 -1 19 -1 19 77 27 95 10z
m-114 -27 c8 -17 5 -24 -23 -45 -44 -34 -51 -33 -65 7 -16 44 -16 45 11 50 48
9 67 6 77 -12z m-123 -18 c3 -10 13 -26 22 -36 14 -17 13 -20 -17 -48 -33 -31
-62 -33 -62 -5 0 8 -7 22 -16 31 -9 9 -13 19 -10 23 4 3 11 0 15 -7 7 -11 13
-9 31 9 l23 23 -22 -6 c-22 -5 -22 -5 -5 14 21 24 33 24 41 2z m-82 -3 c-3 -5
-10 -10 -16 -10 -5 0 -9 5 -9 10 0 6 7 10 16 10 8 0 12 -4 9 -10z m-45 -7 c0
-5 -16 -21 -35 -36 -19 -15 -35 -23 -35 -18 0 5 4 12 10 16 5 3 7 12 4 19 -3
8 2 16 13 19 29 8 43 7 43 0z m-160 -87 c0 -6 -11 -16 -25 -23 -15 -7 -23 -7
-19 -1 7 11 -47 7 -76 -5 -8 -4 -22 -2 -30 3 -13 8 -13 12 3 27 17 17 18 17
11 1 -7 -19 10 -25 21 -8 3 6 21 10 40 10 19 0 36 4 40 10 7 12 35 1 35 -14z
m680 -58 l0 -33 -14 25 c-13 26 -12 40 5 40 5 0 9 -15 9 -32z m-846 -3 c3 -8
1 -15 -4 -15 -6 0 -10 7 -10 15 0 8 2 15 4 15 2 0 6 -7 10 -15z m111 5 c-27
-12 -43 -12 -25 0 8 5 22 9 30 9 10 0 8 -3 -5 -9z m215 -94 c0 -8 -6 -16 -12
-19 -17 -6 -78 3 -78 12 0 13 8 16 49 18 29 2 41 -1 41 -11z m-110 -16 c0 -20
-55 -26 -63 -7 -3 9 6 13 29 14 19 1 34 -3 34 -7z m160 -39 c0 -5 -10 -12 -22
-15 l-23 -7 23 -9 c12 -5 25 -17 29 -26 8 -22 -21 -49 -44 -39 -16 8 -16 9 5
12 12 3 22 11 22 20 0 10 -6 14 -20 10 -16 -4 -20 0 -20 22 0 15 3 31 7 34 9
10 43 8 43 -2z m-340 -22 c0 -14 -17 -10 -23 5 -4 10 -1 13 9 9 7 -3 14 -9 14
-14z m272 -23 c9 -44 -8 -74 -36 -63 -23 9 -20 30 3 22 21 -6 38 10 21 20 -5
3 -10 15 -10 27 0 14 -5 18 -15 14 -15 -6 -20 5 -8 18 17 16 38 -2 45 -38z
m204 6 c-8 -9 -19 -13 -22 -9 -10 9 16 38 28 31 6 -4 4 -13 -6 -22z m-312 -4
c3 -13 6 -34 5 -48 0 -23 -1 -23 -8 -5 -15 39 -21 75 -12 75 5 0 11 -10 15
-22z m-55 -35 l0 -48 -15 45 c-7 25 -14 46 -14 48 0 1 7 2 15 2 11 0 15 -12
14 -47z m578 -55 c-2 -13 -4 -5 -4 17 -1 22 1 32 4 23 2 -10 2 -28 0 -40z
m-280 20 c-3 -8 -6 -5 -6 6 -1 11 2 17 5 13 3 -3 4 -12 1 -19z m135 0 c-7 -7
-12 -22 -12 -35 0 -13 -4 -23 -10 -23 -5 0 -10 11 -10 25 0 14 -4 25 -10 25
-5 0 -10 5 -10 10 0 6 14 10 32 10 25 0 29 -3 20 -12z m48 2 c0 -5 -4 -10 -10
-10 -5 0 -10 5 -10 10 0 6 5 10 10 10 6 0 10 -4 10 -10z m-112 -41 c4 -40 -12
-30 -22 14 -5 21 -3 28 6 25 7 -3 14 -20 16 -39z m-87 -22 c-13 -13 -15 1 -4
30 7 17 8 17 11 -1 2 -10 -1 -23 -7 -29z m-24 -38 c-3 -12 -3 -18 0 -15 7 7
43 -23 43 -35 0 -11 -41 -59 -50 -59 -4 0 -19 18 -33 39 l-26 39 32 26 c39 31
41 31 34 5z m79 -36 c-4 -4 -16 3 -26 17 -29 37 -24 49 7 18 15 -15 23 -31 19
-35z m177 50 c-7 -2 -21 -2 -30 0 -10 3 -4 5 12 5 17 0 24 -2 18 -5z m-88 -13
c-25 -11 -65 -12 -65 -2 0 4 19 8 43 9 31 2 37 0 22 -7z m-238 -57 c7 -10 31
-43 52 -73 l39 -56 -20 -27 c-20 -28 -10 -39 12 -12 28 33 44 4 28 -49 -6 -20
-14 -36 -17 -35 -3 0 -28 27 -56 60 -27 33 -65 76 -82 97 -18 20 -33 43 -33
49 0 7 -12 21 -27 30 l-27 18 49 6 c28 3 54 7 59 7 5 1 15 -6 23 -15z m188 7
c3 -5 1 -10 -4 -10 -6 0 -11 5 -11 10 0 6 2 10 4 10 3 0 8 -4 11 -10z m-518
-32 c-3 -7 -5 -2 -5 12 0 14 2 19 5 13 2 -7 2 -19 0 -25z m140 -89 c148 -175
168 -200 168 -208 0 -4 -13 -23 -29 -41 l-28 -34 -25 29 c-13 17 -41 48 -61
70 -120 129 -110 113 -125 213 -8 51 -10 91 -6 90 4 -2 52 -55 106 -119z m323
77 c0 -13 -3 -38 -6 -56 l-7 -32 -22 28 -23 29 22 27 c26 34 36 35 36 4z
m-453 -68 c-3 -7 -5 -2 -5 12 0 14 2 19 5 13 2 -7 2 -19 0 -25z m10 -50 c-3
-8 -6 -5 -6 6 -1 11 2 17 5 13 3 -3 4 -12 1 -19z m463 6 c0 -8 -5 -12 -10 -9
-6 4 -8 11 -5 16 9 14 15 11 15 -7z m-375 -105 c22 -27 57 -68 78 -90 20 -22
37 -45 37 -50 0 -5 6 -9 13 -9 6 0 20 -14 30 -32 l18 -32 -30 -28 c-30 -28
-48 -37 -36 -18 3 6 0 10 -8 10 -8 0 -17 -10 -19 -23 -7 -37 30 -28 70 16 37
39 50 38 73 -6 9 -15 6 -25 -17 -48 -26 -27 -29 -28 -46 -12 -20 18 -39 10
-20 -9 9 -9 5 -19 -19 -41 l-31 -28 -24 22 c-16 15 -22 29 -18 42 5 15 2 18
-14 13 -38 -12 -63 58 -33 93 10 11 24 21 31 21 6 0 -6 20 -28 46 -26 29 -42
58 -46 82 -15 105 -17 132 -9 132 4 -1 26 -23 48 -51z m357 -19 c-6 -16 -11
-20 -16 -11 -4 6 -2 19 5 27 16 20 21 12 11 -16z m-51 -59 c-28 -28 -17 -45
23 -38 l31 5 3 -53 c2 -58 5 -56 -68 -71 -19 -4 -29 -9 -22 -11 6 -3 12 -11
12 -18 0 -9 8 -11 23 -8 21 5 21 5 3 -9 -17 -14 -22 -13 -44 6 -37 33 -46 54
-27 72 15 15 20 34 9 34 -3 0 -14 -10 -24 -22 l-17 -22 -26 29 c-15 17 -27 33
-27 36 0 3 14 18 31 35 l31 29 19 -24 c13 -16 23 -21 30 -14 7 7 5 14 -6 23
-14 12 -13 16 12 42 23 24 29 26 41 14 12 -12 11 -17 -7 -35z m259 -22 c0 -5
-7 -9 -15 -9 -8 0 -15 -3 -15 -6 0 -3 7 -12 15 -20 8 -9 15 -25 15 -37 0 -17
-2 -19 -9 -8 -5 8 -19 12 -35 9 -22 -4 -26 -2 -26 18 0 14 -9 28 -22 36 -22
11 -20 13 27 24 51 11 65 10 65 -7z m170 1 c4 0 10 -14 12 -31 4 -25 1 -32
-19 -40 -44 -17 -63 -11 -63 18 0 30 28 64 48 57 8 -2 17 -4 22 -4z m-725
-106 c-18 -28 -30 -20 -33 21 l-3 40 23 -23 c17 -17 20 -26 13 -38z m790 -4
c-3 -5 -13 -10 -21 -10 -8 0 -14 5 -14 10 0 6 9 10 21 10 11 0 17 -4 14 -10z
m-65 -4 c0 -2 -7 -7 -16 -10 -8 -3 -12 -2 -9 4 6 10 25 14 25 6z m-165 -26
c-3 -5 -12 -10 -18 -10 -7 0 -6 4 3 10 19 12 23 12 15 0z m-95 -10 c12 -8 11
-10 -7 -10 -13 0 -23 5 -23 10 0 13 11 13 30 0z m-120 -20 c0 -5 -4 -10 -10
-10 -5 0 -10 5 -10 10 0 6 5 10 10 10 6 0 10 -4 10 -10z m-86 -46 c3 -8 2 -13
-3 -10 -5 3 -19 -3 -31 -14 -32 -28 -38 -16 -9 15 28 29 35 30 43 9z m570 -35
c-3 -6 -14 -9 -24 -6 -9 2 -25 0 -34 -5 -18 -10 -39 -2 -31 13 4 5 26 9 51 9
30 0 43 -4 38 -11z m-782 -66 c-6 -3 -10 -9 -6 -14 9 -15 57 3 78 28 10 13 24
22 32 19 9 -3 11 0 7 11 -5 13 -2 12 13 -3 19 -19 19 -19 -16 -29 l-35 -10 5
-53 c3 -29 4 -55 1 -58 -13 -12 -55 -1 -79 21 -23 22 -25 27 -12 35 10 6 11
10 3 10 -7 0 -13 7 -13 16 0 8 -4 12 -10 9 -6 -3 -10 4 -10 17 0 13 -3 34 -6
48 -6 24 -5 23 27 -9 22 -22 30 -35 21 -38z m618 2 c0 -28 -4 -32 -42 -42 -24
-7 -47 -8 -51 -4 -4 4 -9 28 -10 52 l-2 44 40 5 c47 7 65 -8 65 -55z m138 27
c2 -7 -2 -10 -12 -6 -9 3 -16 11 -16 16 0 13 23 5 28 -10z m-548 4 c0 -9 -30
-14 -35 -6 -4 6 3 10 14 10 12 0 21 -2 21 -4z m43 -23 c3 -5 7 -28 8 -52 l4
-43 -42 -2 c-30 -2 -43 2 -43 11 0 7 4 13 9 13 6 0 9 12 8 28 -2 33 26 38 31
5 2 -13 7 -23 12 -23 4 0 4 16 0 35 -7 31 1 48 13 28z m364 -99 c-3 -3 -12 -4
-19 -1 -8 3 -5 6 6 6 11 1 17 -2 13 -5z m-64 -11 c-7 -2 -19 -2 -25 0 -7 3 -2
5 12 5 14 0 19 -2 13 -5z m-298 -43 c-45 -11 -87 -11 -80 0 3 6 30 9 58 9 45
-1 48 -2 22 -9z m-200 -20 c4 -6 -7 -10 -27 -9 -31 1 -32 1 -8 9 14 4 26 8 27
9 1 1 5 -3 8 -9z m45 6 c0 -11 -19 -15 -25 -6 -3 5 1 10 9 10 9 0 16 -2 16 -4z
m757 -78 c-3 -7 -5 -2 -5 12 0 14 2 19 5 13 2 -7 2 -19 0 -25z m-682 -8 c3 -5
-1 -10 -10 -10 -9 0 -13 5 -10 10 3 6 8 10 10 10 2 0 7 -4 10 -10z m695 -107
c0 -82 16 -289 26 -335 4 -22 11 -28 33 -28 14 0 37 -7 50 -16 19 -14 25 -14
32 -3 5 8 9 19 9 25 0 7 13 9 38 5 20 -4 48 -3 62 3 19 6 36 4 63 -9 20 -9 44
-15 52 -11 8 3 15 1 15 -5 0 -6 4 -8 8 -5 4 2 39 -2 77 -10 39 -8 78 -13 88
-10 17 4 18 -1 12 -72 -4 -42 -8 -78 -9 -79 -1 -1 -28 -3 -61 -4 -86 -4 -221
10 -284 28 -38 11 -70 13 -110 8 -31 -3 -63 -6 -71 -6 -8 0 -64 2 -125 4
l-110 4 1 39 c2 97 17 124 74 128 8 1 16 9 18 19 2 9 12 17 22 17 13 0 17 5
14 14 -3 9 3 17 17 21 l22 7 -24 19 c-25 19 -11 26 20 9 15 -8 18 -5 19 20 0
20 -4 30 -14 30 -8 0 -14 -7 -14 -15 0 -8 -4 -15 -10 -15 -5 0 -10 9 -10 20 0
11 -4 20 -10 20 -5 0 -10 7 -10 15 0 11 11 15 38 15 38 0 39 1 40 40 1 29 -2
40 -13 40 -9 0 -12 -6 -9 -15 10 -24 -21 -8 -35 19 -7 13 -11 34 -9 47 2 19
10 25 35 27 30 3 31 5 22 28 -9 26 -5 44 12 44 5 0 9 -35 9 -77z m156 -23 c9
0 14 -11 14 -29 0 -36 -7 -41 -43 -34 -21 4 -27 11 -27 32 0 32 9 44 28 36 7
-3 20 -5 28 -5z m184 -35 c14 -17 10 -47 -9 -53 -10 -3 -13 3 -9 27 3 20 0 31
-7 31 -7 0 -12 -10 -11 -22 1 -27 -17 -37 -22 -13 -9 41 31 62 58 30z m178
-23 c3 -9 -4 -12 -24 -9 -15 2 -30 9 -32 16 -3 9 5 11 24 9 15 -2 29 -9 32
-16z m-1155 -13 c-6 -6 -48 -12 -94 -14 l-84 -4 60 13 c78 18 133 20 118 5z
m792 -89 c3 -5 3 -21 -1 -35 -5 -22 -11 -26 -38 -23 -31 3 -44 23 -32 54 6 16
61 19 71 4z m160 -45 c0 -25 -4 -30 -25 -30 -18 0 -25 5 -24 18 1 9 2 24 3 33
1 10 9 14 24 12 17 -2 22 -10 22 -33z m183 -15 c8 0 12 -9 10 -22 -2 -19 -9
-23 -32 -21 -36 3 -49 14 -40 37 5 12 13 16 28 12 11 -3 27 -6 34 -6z m311
-550 c10 -5 21 -16 25 -25 4 -11 -3 -9 -24 7 -39 29 -40 39 -1 18z m-932 -65
c-2 -37 -13 -47 -45 -38 -15 4 -19 12 -17 36 2 18 3 33 4 35 1 1 14 2 30 2 27
0 29 -3 28 -35z m143 6 c0 -21 -23 -81 -30 -81 -6 0 -10 5 -10 11 0 5 -4 8 -8
5 -9 -5 -16 60 -8 73 6 9 56 2 56 -8z m702 -3 c-7 -7 -12 -8 -12 -2 0 14 12
26 19 19 2 -3 -1 -11 -7 -17z m-560 -37 c-3 -28 -9 -41 -22 -44 -31 -8 -49 14
-43 51 5 28 9 32 37 32 31 0 31 -1 28 -39z m688 29 c0 -5 -12 -10 -27 -9 l-28
1 25 8 c14 4 26 8 28 9 1 1 2 -3 2 -9z m-540 -37 c0 -27 -25 -63 -44 -63 -6 0
-4 5 4 10 12 8 11 10 -7 10 -24 0 -31 14 -25 47 3 19 11 23 38 23 30 0 34 -3
34 -27z m127 9 c7 -4 11 -21 10 -37 -2 -26 -6 -30 -32 -30 -18 0 -30 5 -29 13
1 6 2 23 3 37 1 25 23 33 48 17z m706 -12 c8 0 7 -4 -2 -9 -21 -13 -5 -41 23
-41 33 0 44 20 21 37 -20 14 -9 18 13 4 24 -14 10 -46 -21 -49 -34 -4 -68 22
-61 46 5 13 2 13 -10 -2 -9 -11 -19 -17 -22 -13 -11 11 18 38 33 32 8 -3 20
-5 26 -5z m107 -41 c0 -5 -7 -9 -15 -9 -9 0 -15 9 -15 21 0 18 2 19 15 9 8 -7
15 -16 15 -21z m-40 -39 c-20 -20 -40 -19 -40 0 0 7 10 11 53 19 4 0 -2 -8
-13 -19z m-1594 -41 c9 -16 -10 -31 -30 -23 -13 5 -14 9 -5 20 14 17 25 18 35
3z m1684 -51 c0 -13 -63 -6 -67 8 -2 6 10 8 32 6 19 -2 35 -8 35 -14z m-650
-99 c0 -20 -15 -26 -24 -10 -8 13 4 42 15 35 5 -3 9 -14 9 -25z m-560 -31 c0
-6 -10 -8 -22 -4 -13 3 -27 6 -31 6 -5 0 -6 4 -3 9 7 11 56 2 56 -11z m1202
-23 c7 -28 -4 -55 -23 -55 -17 0 -30 50 -18 71 14 27 31 20 41 -16z m-1139 18
c-7 -2 -19 -2 -25 0 -7 3 -2 5 12 5 14 0 19 -2 13 -5z"/>
<path d="M2290 4510 c-8 -5 -12 -11 -9 -14 2 -3 11 -1 19 4 8 5 12 11 9 14 -2
3 -11 1 -19 -4z"/>
<path d="M2150 4437 c-14 -6 -36 -22 -50 -34 -14 -13 -34 -26 -45 -29 -11 -4
-36 -19 -56 -35 -20 -16 -38 -27 -40 -26 -3 1 -1 -2 3 -7 5 -6 17 -1 30 11 13
12 34 27 48 32 14 6 39 20 55 31 17 11 47 29 68 40 53 29 43 43 -13 17z"/>
<path d="M2196 4395 c-3 -8 -12 -15 -20 -15 -20 0 -46 -39 -46 -67 0 -16 11
-30 33 -43 42 -26 72 -25 91 2 24 35 20 74 -13 108 -32 34 -37 36 -45 15z m44
-42 c0 -5 -19 -9 -43 -11 -30 -1 -38 1 -27 8 18 11 70 13 70 3z m-30 -59 c0
-8 -4 -12 -10 -9 -5 3 -10 10 -10 16 0 5 5 9 10 9 6 0 10 -7 10 -16z"/>
<path d="M1776 4381 c-3 -5 1 -11 9 -14 9 -4 12 -1 8 9 -6 16 -10 17 -17 5z"/>
<path d="M2081 4298 c-1 -28 21 -39 34 -18 3 6 -1 10 -9 10 -8 0 -17 8 -19 18
-3 10 -5 6 -6 -10z"/>
<path d="M1923 4293 c-15 -5 -17 -23 -4 -23 5 0 11 7 15 15 3 8 4 15 3 14 -1
0 -8 -3 -14 -6z"/>
<path d="M1934 4235 c3 -22 13 -27 19 -11 3 8 0 17 -8 19 -7 3 -12 0 -11 -8z"/>
<path d="M1600 3980 c0 -5 5 -10 11 -10 5 0 7 5 4 10 -3 6 -8 10 -11 10 -2 0
-4 -4 -4 -10z"/>
<path d="M1691 3484 c0 -11 3 -14 6 -6 3 7 2 16 -1 19 -3 4 -6 -2 -5 -13z"/>
<path d="M2765 2544 c3 -35 17 -46 51 -42 24 2 30 8 32 32 3 26 2 28 -12 17
-9 -8 -16 -20 -16 -27 0 -27 -28 -14 -33 16 -8 37 -26 40 -22 4z"/>
<path d="M2418 2548 c5 -5 16 -8 23 -6 8 3 3 7 -10 11 -17 4 -21 3 -13 -5z"/>
<path d="M2815 2710 c-8 -13 -1 -24 14 -19 6 3 7 10 2 18 -6 10 -10 10 -16 1z"/>
<path d="M2796 2033 c-11 -11 -6 -23 9 -23 8 0 15 4 15 9 0 13 -16 22 -24 14z"/>
<path d="M6690 4743 c-96 -30 -348 -108 -559 -173 -211 -66 -392 -127 -402
-136 -38 -34 -26 -88 114 -514 74 -223 142 -420 151 -438 10 -20 24 -32 37
-32 17 0 20 -4 14 -29 -4 -18 -1 -34 7 -43 7 -8 80 -84 163 -169 457 -471 456
-470 503 -455 11 4 68 40 126 81 l106 74 0 -170 c0 -193 8 -225 61 -236 38 -7
40 -12 27 -56 -11 -37 -12 -37 -67 -37 -105 0 -277 -27 -343 -55 -15 -6 -16
-2 -11 28 5 32 2 37 -24 51 -30 15 -169 50 -423 107 l-134 30 -224 -17 c-122
-9 -225 -14 -227 -12 -13 13 19 66 50 83 49 26 123 107 146 160 27 61 34 133
19 181 -7 21 -32 58 -55 83 -41 45 -43 49 -54 146 -12 107 -68 335 -103 425
-60 152 -154 256 -263 289 -35 11 -90 25 -122 30 -122 23 -220 -39 -279 -174
-16 -36 -31 -65 -35 -65 -3 0 -22 -11 -42 -24 -19 -13 -37 -22 -40 -20 -2 3
-10 -17 -18 -43 -9 -32 -14 -96 -13 -188 1 -120 5 -154 28 -240 39 -139 75
-227 92 -221 22 8 26 -10 30 -125 3 -97 6 -115 31 -160 40 -74 146 -158 200
-159 15 -1 16 -2 3 -9 -8 -5 -55 -12 -104 -16 -105 -8 -136 -20 -136 -50 0
-12 25 -79 56 -149 31 -70 53 -134 50 -142 -3 -8 5 -42 19 -74 15 -36 29 -95
34 -147 7 -59 25 -132 55 -218 61 -177 60 -176 33 -125 -14 25 -39 91 -58 147
-18 57 -36 99 -39 94 -3 -5 -5 30 -6 77 0 113 -28 188 -93 253 -79 80 -139 83
-293 13 -43 -19 -110 -41 -151 -49 -67 -13 -166 -42 -176 -51 -3 -2 17 -1 42
2 32 5 47 3 47 -5 0 -6 -11 -11 -25 -11 -14 0 -25 -5 -25 -10 0 -6 -10 -8 -23
-5 -15 4 -46 -6 -90 -28 -58 -29 -65 -31 -46 -11 11 12 34 28 50 35 16 6 28
14 25 16 -11 11 -89 -41 -110 -75 -33 -50 -40 -96 -26 -173 20 -110 77 -212
139 -243 38 -20 126 -32 116 -16 -5 9 -2 10 14 5 13 -4 21 -2 21 5 0 7 8 9 21
5 13 -5 19 -3 15 3 -6 10 23 26 32 17 3 -3 -1 -5 -8 -5 -7 0 -11 -2 -8 -5 7
-8 145 43 193 71 22 12 78 32 125 44 106 26 183 63 205 97 16 23 18 24 27 9 5
-10 13 -54 17 -99 8 -79 10 -85 71 -175 42 -61 71 -94 87 -98 38 -10 93 3 200
46 109 44 153 55 168 43 31 -24 175 -223 175 -241 0 -6 15 -21 33 -33 83 -57
207 -152 207 -158 0 -3 -52 -28 -116 -55 -63 -26 -118 -54 -121 -62 -9 -23 20
-57 154 -177 452 -405 812 -725 837 -745 44 -34 73 -28 156 31 41 30 244 172
450 317 206 146 388 277 403 292 26 26 28 31 25 105 l-3 77 -130 57 c-129 57
-178 74 -120 41 17 -10 30 -25 30 -36 0 -11 6 -21 14 -24 9 -3 11 0 6 8 -5 8
-4 11 3 6 6 -4 9 -13 6 -20 -3 -8 3 -17 14 -20 11 -4 23 -13 26 -21 3 -9 18
-15 36 -15 35 0 37 -4 13 -29 -17 -17 -157 -77 -233 -99 -19 -6 -89 -27 -155
-47 -393 -122 -463 -137 -506 -114 -25 13 -478 336 -626 446 -107 79 -151 119
-106 94 11 -6 23 -8 26 -5 3 3 18 -1 34 -9 17 -9 36 -12 48 -7 23 10 135 125
135 140 0 6 7 10 15 10 8 0 15 4 15 9 0 5 9 11 20 14 12 3 18 11 15 20 -4 9 4
18 24 27 17 7 31 15 31 19 0 11 63 31 95 31 18 0 25 4 19 9 -5 5 -67 4 -154
-5 -80 -7 -158 -13 -175 -13 l-30 0 30 14 c36 16 203 124 193 125 -12 0 -88
-41 -94 -51 -3 -5 -14 -9 -25 -9 -10 0 -19 -4 -19 -9 0 -16 -34 -17 -46 -2
-10 12 -14 10 -27 -15 -9 -16 -16 -23 -17 -16 0 6 -7 12 -15 12 -18 0 -19 -12
-4 -27 8 -8 7 -13 -2 -19 -7 -4 -14 -3 -17 4 -5 17 -22 15 -22 -3 0 -10 -10
-15 -32 -15 -17 0 -28 3 -25 7 8 8 -11 33 -25 33 -6 0 -5 -7 2 -15 7 -8 9 -16
4 -16 -5 -1 -16 -2 -24 -3 -8 0 -30 17 -47 39 -27 32 -33 49 -33 88 0 26 -4
47 -10 47 -14 0 -12 11 5 34 8 11 18 16 22 12 4 -4 1 -11 -6 -16 -12 -7 -12
-14 1 -46 17 -43 26 -49 50 -31 17 14 14 67 -4 67 -6 0 -7 -11 -4 -26 5 -19 3
-25 -6 -22 -7 3 -13 12 -12 21 3 66 5 77 14 77 13 0 43 -67 35 -79 -3 -6 1
-11 9 -11 9 0 16 -4 16 -9 0 -8 49 -9 58 -1 1 1 5 3 10 4 4 1 16 6 27 12 11 5
35 9 53 8 22 -2 32 2 32 13 0 19 49 83 64 83 8 0 8 -3 0 -8 -15 -10 -25 -40
-15 -47 8 -4 39 24 34 32 -9 11 -1 13 12 3 20 -17 28 -7 27 31 0 18 7 40 18
52 13 13 18 28 14 44 -4 13 -2 23 4 23 20 0 25 -60 7 -80 -21 -24 -13 -52 12
-43 10 4 21 11 25 17 5 6 8 2 8 -11 0 -12 5 -25 10 -28 6 -3 10 3 10 14 0 12
7 21 15 21 8 0 15 5 15 10 0 6 5 10 10 10 18 0 50 39 44 55 -4 8 -10 15 -15
15 -5 0 -9 7 -9 16 0 8 -5 12 -10 9 -7 -5 -8 -11 -1 -19 14 -16 1 -33 -31 -41
-21 -5 -29 -2 -38 14 -13 25 -2 28 15 4 11 -15 15 -15 29 -4 15 13 15 15 -1
27 -16 12 -16 13 -2 14 20 0 33 27 16 33 -7 2 -9 8 -4 12 4 5 14 0 22 -11 14
-19 14 -18 15 3 0 23 17 40 28 28 3 -3 0 -10 -8 -15 -10 -6 -11 -10 -3 -10 9
0 10 -7 3 -25 -6 -15 -6 -26 0 -30 6 -4 10 -15 10 -25 0 -10 4 -22 10 -25 11
-7 53 19 45 27 -3 3 4 8 15 11 13 3 28 -2 40 -15 19 -21 50 -19 50 3 0 6 -7 8
-16 5 -8 -3 -13 -2 -10 3 3 5 -10 21 -29 35 -20 16 -32 32 -29 40 6 16 -30 40
-49 33 -7 -2 -17 3 -23 11 -12 17 -153 42 -238 42 -50 0 -57 -2 -47 -14 10
-12 7 -15 -21 -18 -29 -3 -33 -6 -32 -30 1 -20 -4 -28 -16 -28 -10 0 -24 -7
-31 -17 -13 -15 -11 -16 14 -11 20 4 25 2 18 -5 -6 -6 -11 -17 -11 -25 0 -12
4 -11 25 2 13 9 32 16 41 16 13 0 12 -6 -9 -34 l-26 -33 55 2 c59 2 73 -5 49
-25 -8 -7 -12 -16 -9 -21 3 -5 -4 -9 -15 -9 -10 0 -22 6 -24 13 -4 9 -6 9 -6
0 -1 -7 -20 -21 -43 -32 -24 -11 -50 -29 -58 -40 -8 -12 -22 -21 -31 -21 -10
0 -24 -6 -32 -14 -13 -14 -37 -20 -65 -17 -10 1 -10 6 -2 22 10 17 8 21 -9 26
-12 3 -21 7 -21 10 0 17 26 46 48 54 l27 11 -28 15 c-27 13 -31 13 -50 -5 -12
-10 -35 -24 -52 -30 -16 -5 -38 -13 -47 -17 -13 -5 -18 -2 -18 8 0 13 55 47
77 47 5 0 15 11 23 24 11 21 10 27 -3 40 -20 20 -34 20 -72 0 -29 -16 -121
-27 -139 -16 -16 9 19 22 63 22 25 0 64 10 88 21 43 21 44 22 26 42 -17 20
-17 20 2 12 48 -19 65 -18 65 3 0 11 6 22 14 25 20 8 28 -4 15 -20 -15 -18 5
-17 39 1 15 8 35 17 45 20 24 8 33 35 18 57 -6 11 -7 19 -2 19 5 0 11 -6 14
-14 6 -16 77 -40 86 -29 3 3 -1 8 -9 11 -26 10 152 39 184 31 l29 -8 -21 22
-21 22 25 60 c14 33 29 73 35 89 19 64 61 166 67 166 4 0 5 -40 4 -89 l-4 -89
40 -44 c33 -35 38 -47 30 -62 -14 -24 3 -40 65 -60 116 -39 234 -50 502 -50
231 0 271 2 363 22 56 12 118 30 138 39 31 16 35 21 30 46 -5 24 1 37 35 75
l41 47 -8 100 c-7 91 -11 139 -13 156 -2 12 -100 49 -170 64 -39 8 -120 18
-181 21 -104 7 -110 8 -110 29 0 11 -5 26 -11 32 -16 16 -4 29 30 36 21 4 36
17 47 39 15 30 16 63 10 349 l-6 317 200 133 c109 74 200 138 200 143 0 5 -3
7 -6 4 -3 -3 -16 4 -29 16 -13 11 -85 59 -161 106 -75 47 -202 127 -282 178
-80 51 -151 91 -158 88 -7 -3 -11 0 -8 8 5 12 -54 46 -82 46 -12 0 -13 4 -3
21 15 30 8 77 -72 473 -58 286 -72 344 -90 359 -12 9 -24 17 -28 16 -3 -1 -85
-26 -181 -56z m198 -85 c6 -18 38 -162 70 -320 l59 -287 -31 -15 c-17 -8 -119
-56 -226 -106 -482 -228 -731 -343 -735 -339 -3 4 -116 356 -195 607 -23 74
-40 135 -38 137 2 1 230 78 508 170 278 92 512 171 520 176 32 18 56 10 68
-23z m-1735 -840 c-10 -18 -18 -34 -19 -36 -1 -1 -8 0 -16 3 -12 5 -10 12 11
36 34 39 47 37 24 -3z m12 -73 c142 -68 273 -231 341 -425 13 -38 24 -78 24
-89 0 -11 4 -22 9 -25 14 -9 0 -56 -16 -56 -8 0 -41 -14 -73 -31 l-58 -31 -65
26 c-106 42 -184 35 -219 -21 l-21 -36 -19 37 c-11 21 -28 72 -40 114 -26 96
-31 326 -9 412 15 60 56 160 66 160 3 0 39 -16 80 -35z m355 -36 c0 -5 -4 -9
-10 -9 -5 0 -10 7 -10 16 0 8 5 12 10 9 6 -3 10 -10 10 -16z m1090 -60 c-41
-22 -86 -42 -100 -44 -14 -3 16 15 65 40 111 55 137 59 35 4z m350 -119 c0 -5
-2 -10 -4 -10 -3 0 -8 5 -11 10 -3 6 -1 10 4 10 6 0 11 -4 11 -10z m-140 -15
c7 -8 8 -15 2 -15 -5 0 -15 7 -22 15 -7 8 -8 15 -2 15 5 0 15 -7 22 -15z m81
-27 c11 -21 11 -22 -4 -9 -10 7 -17 17 -17 22 0 15 9 10 21 -13z m-136 -10 c5
4 5 1 1 -6 -6 -10 -11 -10 -22 -1 -8 6 -14 14 -14 16 0 3 6 0 13 -6 8 -6 18
-7 22 -3z m99 -4 c21 -8 20 -17 -2 -30 -14 -9 -23 -8 -37 3 -17 12 -18 15 -5
23 18 11 23 12 44 4z m-144 -19 c7 -9 8 -15 2 -15 -5 0 -12 7 -16 15 -3 8 -4
15 -2 15 2 0 9 -7 16 -15z m221 -9 c-15 -17 0 -29 26 -20 20 7 -36 -30 -135
-90 -61 -37 -64 -37 -83 -21 -26 24 -24 30 14 49 17 9 64 34 102 56 75 42 94
48 76 26z m-256 -14 c-3 -3 -11 0 -18 7 -9 10 -8 11 6 5 10 -3 15 -9 12 -12z
m119 3 c21 -16 21 -17 -10 -33 -17 -9 -25 -8 -38 7 -23 26 -19 32 24 40 3 0
14 -6 24 -14z m-178 -42 c-6 -6 -36 9 -36 18 0 5 9 4 20 -3 10 -7 18 -14 16
-15z m114 2 c17 -21 -32 -44 -55 -25 -20 16 -19 27 3 33 31 8 39 7 52 -8z
m230 -10 c0 -16 -301 -196 -327 -195 -12 1 38 38 75 56 17 9 32 20 32 25 0 12
-7 11 -31 -2 -16 -8 -25 -7 -40 7 -24 22 -24 26 2 42 19 12 25 10 50 -14 l30
-28 92 48 c51 27 96 53 102 57 10 10 15 11 15 4z m-302 -27 c15 -15 -3 -38
-30 -38 -23 0 -36 29 -17 41 19 12 33 11 47 -3z m388 -55 c3 -16 10 -44 15
-63 13 -49 13 -49 -25 -32 -21 9 -32 20 -29 29 3 8 -2 13 -15 13 -29 0 -38 36
-16 61 26 29 62 25 70 -8z m-405 -34 c11 -11 19 -22 17 -23 -25 -20 -45 -23
-61 -9 -16 15 -16 17 0 34 23 22 19 23 44 -2z m256 -25 c-2 -2 -12 -2 -21 2
-15 6 -15 7 1 20 15 11 19 10 21 -2 2 -9 2 -18 -1 -20z m-14 -36 c21 -21 43
-38 48 -38 5 0 9 -19 9 -42 0 -31 -3 -39 -10 -28 -7 12 -15 8 -41 -23 -17 -20
-40 -37 -50 -37 -11 0 -19 -5 -19 -11 0 -6 -19 -9 -47 -7 -46 3 -48 4 -48 32
0 16 -6 31 -13 34 -10 3 -10 7 -1 18 10 12 8 18 -7 30 -10 9 -13 13 -6 9 6 -3
12 -1 12 5 0 6 5 8 11 4 6 -3 3 5 -6 20 -15 22 -15 26 -2 26 8 0 17 7 21 15 3
8 12 15 21 15 8 0 15 4 15 9 0 12 29 18 55 12 11 -2 37 -21 58 -43z m465 -70
l-3 -33 -182 -3 -183 -2 0 35 0 35 186 0 185 0 -3 -32z m-83 -128 c4 -6 -6
-10 -22 -9 -25 0 -26 1 -8 9 11 5 21 9 22 9 1 1 5 -3 8 -9z m-162 -7 c-13 -2
-33 -2 -45 0 -13 2 -3 4 22 4 25 0 35 -2 23 -4z m35 -241 c3 -16 -2 -22 -17
-22 -24 0 -35 15 -27 36 9 23 40 13 44 -14z m100 5 c3 -12 -4 -17 -22 -17 -19
0 -26 5 -26 18 0 24 44 23 48 -1z m102 8 c0 -12 -28 -35 -44 -35 -12 0 -6 38
7 43 23 10 37 7 37 -8z m-302 -18 c2 -11 -3 -17 -17 -17 -23 0 -35 15 -26 31
10 15 39 6 43 -14z m-1493 -186 c4 -14 1 -27 -6 -31 -15 -10 -218 -24 -226
-16 -4 3 4 6 17 6 40 0 99 22 121 46 30 32 86 29 94 -5z m1013 -146 c-2 -2
-73 -16 -158 -30 -85 -14 -159 -30 -165 -34 -5 -5 -73 -19 -150 -31 -288 -45
-367 -60 -381 -71 -19 -16 -18 -40 16 -234 28 -162 31 -206 12 -154 -15 39
-64 360 -59 380 3 11 3 19 0 19 -2 0 -120 -20 -260 -46 -141 -25 -270 -44
-287 -42 l-31 3 30 16 c54 30 762 147 980 164 39 2 102 12 140 20 152 34 330
56 313 40z m415 -72 c-7 -2 -19 -2 -25 0 -7 3 -2 5 12 5 14 0 19 -2 13 -5z
m416 -3 c-24 -14 -154 -24 -176 -14 -13 6 -4 10 37 14 92 11 157 11 139 0z
m-1030 -24 c-2 -2 -17 -6 -34 -10 -22 -5 -26 -4 -15 4 14 9 59 15 49 6z m-446
-116 c-13 -15 -20 -17 -31 -7 -12 10 -11 13 9 18 38 11 40 10 22 -11z m177
-18 c0 -4 -5 -13 -12 -20 -9 -9 -9 -12 0 -12 7 0 12 -4 12 -10 0 -5 -7 -10
-15 -10 -15 0 -21 40 -8 53 9 10 23 9 23 -1z m-104 -36 c3 -8 2 -21 -3 -30 -7
-12 -11 -12 -27 -1 -11 8 -16 21 -13 30 8 19 36 20 43 1z m-1436 -74 c0 -12
-39 -12 -46 0 -5 7 -1 9 9 5 10 -3 17 -2 17 4 0 6 5 7 10 4 6 -3 10 -9 10 -13z
m121 1 c9 -10 7 -13 -9 -13 -12 0 -24 5 -27 11 -4 6 -13 8 -21 5 -7 -3 -16 -1
-19 4 -9 15 64 8 76 -7z m1443 6 c-3 -6 -1 -15 6 -19 9 -5 9 -9 1 -14 -6 -4
-11 -3 -11 3 0 6 -7 8 -16 4 -14 -5 -15 -3 -5 15 7 12 16 22 22 22 6 0 7 -5 3
-11z m-69 -18 c-3 -5 -1 -12 3 -15 15 -9 1 -56 -15 -56 -11 0 -13 7 -9 26 5
17 3 23 -4 19 -6 -3 -10 3 -10 14 0 15 6 21 21 21 11 0 18 -4 14 -9z m-81 -48
c-15 -24 -33 -27 -41 -7 -8 21 26 49 41 34 7 -7 7 -16 0 -27z m-1367 -55 c-3
-8 -6 -5 -6 6 -1 11 2 17 5 13 3 -3 4 -12 1 -19z m-62 2 c3 -5 1 -10 -4 -10
-6 0 -11 5 -11 10 0 6 2 10 4 10 3 0 8 -4 11 -10z m-115 -50 c0 -5 -4 -10 -10
-10 -5 0 -10 5 -10 10 0 6 5 10 10 10 6 0 10 -4 10 -10z m375 -70 c-3 -5 -12
-10 -18 -10 -7 0 -6 4 3 10 19 12 23 12 15 0z m0 -70 c3 -5 1 -10 -4 -10 -6 0
-11 5 -11 10 0 6 2 10 4 10 3 0 8 -4 11 -10z m-41 -45 c-6 -16 -24 -21 -24 -7
0 11 11 22 21 22 5 0 6 -7 3 -15z m1894 -17 c-5 -15 -23 -11 -26 6 -2 11 2 14
13 10 9 -4 14 -11 13 -16z m-288 -43 c0 -8 -2 -15 -4 -15 -2 0 -6 7 -10 15 -3
8 -1 15 4 15 6 0 10 -7 10 -15z m-1770 -49 c0 -3 -4 -8 -10 -11 -5 -3 -10 -1
-10 4 0 6 5 11 10 11 6 0 10 -2 10 -4z m1300 -20 c0 -3 -4 -8 -10 -11 -5 -3
-10 -1 -10 4 0 6 5 11 10 11 6 0 10 -2 10 -4z m-10 -63 c0 -8 -5 -13 -12 -11
-18 6 -21 25 -3 25 8 0 15 -7 15 -14z m20 -33 c0 -11 -4 -20 -9 -20 -11 0 -22
26 -14 34 12 12 23 5 23 -14z m30 -40 c0 -5 -4 -10 -10 -10 -5 0 -10 5 -10 10
0 6 5 10 10 10 6 0 10 -4 10 -10z m467 -1032 c6 5 26 2 20 -4 -6 -6 23 -44 35
-44 3 0 10 9 13 20 6 19 7 19 40 -6 19 -14 36 -25 39 -25 20 3 26 -1 26 -14 0
-9 6 -15 13 -14 23 3 34 -1 55 -18 53 -45 63 -53 68 -53 11 0 83 -84 78 -91
-17 -29 70 -7 107 27 10 9 19 11 23 5 6 -9 -61 -71 -77 -71 -5 0 -7 -7 -4 -14
4 -11 1 -13 -11 -10 -14 5 -14 3 1 -6 14 -9 22 -9 30 -1 6 6 16 11 21 11 6 0
-2 -11 -19 -25 -56 -46 -66 -41 -287 154 -111 98 -216 194 -233 212 l-30 33
45 -35 c24 -19 45 -33 47 -31z"/>
<path d="M6750 4510 c0 -5 5 -10 11 -10 5 0 7 5 4 10 -3 6 -8 10 -11 10 -2 0
-4 -4 -4 -10z"/>
<path d="M6730 4279 c0 -5 5 -7 10 -4 6 3 10 8 10 11 0 2 -4 4 -10 4 -5 0 -10
-5 -10 -11z"/>
<path d="M6916 3145 c4 -8 10 -12 15 -9 11 6 2 24 -11 24 -5 0 -7 -7 -4 -15z"/>
<path d="M4265 4753 c-60 -4 -307 -32 -352 -39 -23 -4 -34 -13 -41 -33 -9 -24
-17 -28 -87 -40 -87 -14 -86 -15 -125 67 -11 23 -22 42 -24 42 -2 0 2 -24 10
-52 7 -29 14 -58 14 -65 0 -6 -45 -22 -102 -36 -102 -25 -103 -25 -136 -6 -18
10 -42 19 -53 19 -48 0 -416 -100 -579 -158 -161 -57 -157 -53 -151 -132 2
-37 7 -50 16 -46 7 2 20 -3 28 -12 14 -16 77 -163 77 -180 0 -9 -70 106 -70
116 -1 11 -40 58 -40 48 0 -13 196 -402 256 -507 75 -134 189 -269 227 -269
61 0 395 66 649 128 l78 19 -7 -40 c-3 -22 -13 -69 -22 -105 -16 -63 -17 -65
-68 -91 l-52 -26 -1 -57 c0 -62 13 -135 37 -210 15 -50 21 -56 40 -37 16 16
32 3 26 -21 -3 -11 0 -20 6 -20 8 0 7 -6 -1 -20 -16 -25 -25 -25 -32 -2 -2 9
-2 -1 1 -23 7 -53 24 -84 54 -99 15 -8 23 -19 21 -32 -5 -39 -3 -106 3 -112 6
-6 21 11 28 33 2 6 39 11 81 11 75 1 78 2 96 32 22 36 40 49 40 27 0 -11 7
-14 26 -11 67 12 193 -103 177 -162 -3 -12 -12 -22 -20 -22 -11 0 -13 -6 -8
-22 14 -46 17 -125 6 -147 -10 -18 -9 -21 10 -21 24 0 99 39 99 52 0 4 18 8
39 8 45 0 51 -10 51 -76 0 -24 5 -44 10 -44 6 0 10 14 10 31 0 58 21 107 50
119 46 19 111 90 141 154 23 48 29 75 29 126 0 71 -7 88 -70 155 -36 39 -38
43 -45 133 -6 88 -36 234 -71 347 -39 128 -104 238 -179 301 l-46 39 128 64
c70 35 172 92 226 125 l99 61 -4 60 c-2 33 -13 80 -25 105 -11 25 -47 108 -78
185 -96 234 -120 281 -169 329 l-45 46 -68 -2 c-38 -1 -90 -3 -118 -5z m-235
-93 c0 -5 -2 -10 -4 -10 -3 0 -8 5 -11 10 -3 6 -1 10 4 10 6 0 11 -4 11 -10z
m367 -6 c-3 -3 -12 -4 -19 -1 -8 3 -5 6 6 6 11 1 17 -2 13 -5z m-187 -34 c0
-5 -4 -10 -10 -10 -5 0 -10 5 -10 10 0 6 5 10 10 10 6 0 10 -4 10 -10z m-60
-10 c0 -5 -4 -10 -10 -10 -5 0 -10 5 -10 10 0 6 5 10 10 10 6 0 10 -4 10 -10z
m-433 -16 c-3 -3 -12 -4 -19 -1 -8 3 -5 6 6 6 11 1 17 -2 13 -5z m373 -4 c0
-5 -2 -10 -4 -10 -3 0 -8 5 -11 10 -3 6 -1 10 4 10 6 0 11 -4 11 -10z m414 -6
c9 -23 7 -36 -3 -30 -12 8 -21 46 -11 46 4 0 11 -7 14 -16z m-54 -13 c12 -24
13 -31 2 -31 -5 0 -14 11 -20 25 -14 29 2 34 18 6z m-56 -40 c-6 -6 -24 19
-24 34 1 6 7 1 15 -9 8 -11 12 -22 9 -25z m-54 3 c0 -8 -4 -14 -10 -14 -5 0
-10 2 -10 4 0 2 -3 12 -6 20 -5 12 -2 15 10 10 9 -3 16 -12 16 -20z m-80 -16
c0 -19 -2 -20 -10 -8 -13 19 -13 30 0 30 6 0 10 -10 10 -22z m310 -62 c17 -32
29 -61 26 -64 -3 -3 -8 -3 -9 -1 -11 13 -67 124 -67 133 0 17 17 -6 50 -68z
m-77 36 c10 -10 14 -22 10 -25 -12 -12 -20 -8 -31 18 -14 29 -2 33 21 7z m-65
-4 c14 -14 16 -38 4 -38 -5 0 -14 11 -20 25 -12 26 -4 33 16 13z m-51 -28 c8
-11 9 -21 3 -25 -8 -5 -30 24 -30 39 0 13 16 5 27 -14z m-79 -12 c14 -14 16
-28 2 -28 -5 0 -14 9 -20 20 -12 22 -1 27 18 8z m-58 -33 c0 -8 -2 -15 -4 -15
-2 0 -6 7 -10 15 -3 8 -1 15 4 15 6 0 10 -7 10 -15z m301 -12 c12 -33 -15 -30
-30 3 -10 22 -9 25 5 22 9 -2 20 -13 25 -25z m-61 -27 c-1 -21 -1 -21 -15 -2
-21 27 -20 53 0 36 8 -7 15 -22 15 -34z m-300 30 c0 -3 -4 -8 -10 -11 -5 -3
-10 -1 -10 4 0 6 5 11 10 11 6 0 10 -2 10 -4z m240 -27 c7 -11 9 -24 5 -27 -7
-7 -35 25 -35 40 0 16 19 8 30 -13z m228 -75 c18 -37 31 -69 27 -72 -7 -7 -8
-5 -44 65 -33 67 -35 73 -23 73 4 0 22 -30 40 -66z m-70 25 c7 -12 11 -23 8
-26 -7 -7 -25 6 -36 28 -15 27 11 26 28 -2z m-48 -40 c0 -14 -12 -10 -26 9
-22 29 -16 51 6 23 11 -13 20 -27 20 -32z m-72 10 c17 -27 5 -40 -14 -15 -8
11 -14 23 -14 28 0 15 15 8 28 -13z m-138 -50 c6 -10 7 -19 3 -19 -4 0 -13 11
-20 25 -13 29 2 24 17 -6z m-1470 6 c0 -8 -7 -15 -15 -15 -8 0 -15 7 -15 15 0
8 7 15 15 15 8 0 15 -7 15 -15z m1762 -2 c10 -9 18 -20 18 -25 0 -16 -18 -8
-34 17 -19 29 -11 33 16 8z m-1643 -58 c0 -5 -6 -1 -14 9 -8 11 -15 27 -15 35
1 17 29 -26 29 -44z m1544 14 c3 -13 1 -19 -6 -16 -15 5 -22 37 -9 37 5 0 12
-9 15 -21z m-83 -38 c-1 -13 -3 -13 -15 3 -19 26 -19 42 0 26 8 -7 15 -20 15
-29z m-1160 15 c0 -3 -4 -8 -10 -11 -5 -3 -10 -1 -10 4 0 6 5 11 10 11 6 0 10
-2 10 -4z m-379 -31 c-1 -15 -24 -12 -29 3 -3 9 2 13 12 10 10 -1 17 -7 17
-13z m289 5 c0 -5 -2 -10 -4 -10 -3 0 -8 5 -11 10 -3 6 -1 10 4 10 6 0 11 -4
11 -10z m1190 0 c0 -5 -2 -10 -4 -10 -3 0 -8 5 -11 10 -3 6 -1 10 4 10 6 0 11
-4 11 -10z m-73 -22 c-3 -8 -6 -5 -6 6 -1 11 2 17 5 13 3 -3 4 -12 1 -19z
m-1292 -19 c9 -17 14 -33 11 -36 -3 -3 -10 7 -16 22 -6 15 -13 32 -16 36 -3 5
-3 9 0 9 3 0 13 -14 21 -31z m1145 -19 c0 -5 -4 -10 -10 -10 -5 0 -10 5 -10
10 0 6 5 10 10 10 6 0 10 -4 10 -10z m-80 -20 c0 -5 -4 -10 -9 -10 -6 0 -13 5
-16 10 -3 6 1 10 9 10 9 0 16 -4 16 -10z m-1132 -22 c-3 -7 -11 -13 -18 -13
-7 0 -15 6 -17 13 -3 7 4 12 17 12 13 0 20 -5 18 -12z m112 -43 c0 -5 -5 -3
-10 5 -5 8 -10 20 -10 25 0 6 5 3 10 -5 5 -8 10 -19 10 -25z m-60 -54 c0 -5
-7 -12 -16 -15 -22 -9 -24 -8 -24 9 0 8 9 15 20 15 11 0 20 -4 20 -9z m1057
-63 c-3 -8 -6 -5 -6 6 -1 11 2 17 5 13 3 -3 4 -12 1 -19z m-1027 -48 c-9 -6
-19 -5 -25 1 -6 6 -5 13 5 19 9 6 19 5 25 -1 6 -6 5 -13 -5 -19z m1036 15 c-3
-8 -1 -15 4 -15 5 0 7 -7 4 -15 -4 -8 -10 -15 -15 -15 -13 0 -22 27 -15 45 3
8 10 15 17 15 6 0 9 -7 5 -15z m-749 -21 c-9 -9 -28 6 -21 18 4 6 10 6 17 -1
6 -6 8 -13 4 -17z m712 -8 c16 -29 4 -59 -12 -31 -7 14 -11 15 -18 4 -14 -23
-20 -3 -8 25 15 32 22 33 38 2z m-946 -81 c1 -5 -6 -11 -15 -13 -11 -2 -18 3
-18 13 0 17 30 18 33 0z m1014 -44 c-15 -27 -25 -37 -33 -30 -6 5 -15 5 -19 1
-5 -4 6 10 25 31 44 48 54 47 27 -2z m15 -71 c84 -43 112 -65 180 -145 68 -80
151 -239 172 -330 23 -97 27 -127 16 -120 -6 4 -39 -7 -74 -24 -34 -17 -67
-31 -72 -31 -5 0 -36 11 -69 25 -67 27 -139 32 -161 11 -7 -8 -24 -23 -37 -33
-13 -10 -26 -25 -29 -33 -6 -18 -41 59 -64 139 -24 86 -30 328 -10 415 22 93
51 156 72 156 9 0 43 -14 76 -30z m372 -76 c3 -8 2 -12 -4 -9 -6 3 -10 10 -10
16 0 14 7 11 14 -7z m-613 -229 c12 -94 50 -243 80 -309 34 -77 16 -90 -20
-14 -44 95 -72 223 -76 353 -4 112 -3 110 16 -30z"/>
<path d="M1402 4540 c0 -19 2 -27 5 -17 2 9 2 25 0 35 -3 9 -5 1 -5 -18z"/>
<path d="M4110 2790 c0 -5 5 -10 11 -10 5 0 7 5 4 10 -3 6 -8 10 -11 10 -2 0
-4 -4 -4 -10z"/>
<path d="M4140 2701 c0 -5 7 -11 15 -15 8 -3 15 -1 15 3 0 5 -7 11 -15 15 -8
3 -15 1 -15 -3z"/>
<path d="M3870 2675 c0 -35 27 -98 39 -91 5 4 13 1 17 -5 4 -8 3 -9 -4 -5 -7
4 -12 4 -12 -1 1 -12 26 -43 35 -43 4 0 2 7 -5 16 -11 12 -10 18 3 32 16 15
17 15 17 -10 0 -26 25 -56 37 -44 4 4 1 11 -7 16 -15 9 -23 40 -10 40 4 0 11
-7 14 -16 4 -10 12 -14 22 -10 13 5 15 2 11 -14 -3 -12 0 -20 8 -20 7 0 18 -7
25 -15 14 -17 35 -21 25 -5 -3 6 2 10 12 10 14 1 11 7 -15 29 -37 32 -33 40
22 43 21 2 36 8 36 16 0 14 -20 15 -74 3 -36 -9 -82 -1 -96 17 -3 4 -26 24
-52 45 l-48 38 0 -26z m210 -155 c0 -5 -4 -10 -10 -10 -5 0 -10 5 -10 10 0 6
5 10 10 10 6 0 10 -4 10 -10z"/>
<path d="M4004 2498 c-8 -13 24 -44 55 -53 17 -5 21 -4 16 5 -5 9 -2 10 14 5
13 -4 21 -2 21 5 0 7 -14 11 -32 10 -18 -1 -39 -2 -45 -1 -19 2 -16 19 5 23
14 3 13 5 -5 10 -13 3 -26 2 -29 -4z"/>
<path d="M4110 2491 c-13 -13 -12 -14 3 -8 9 3 17 2 17 -3 0 -6 7 -10 15 -10
21 0 19 -9 -7 -32 -15 -13 -17 -19 -8 -17 8 1 29 -1 47 -5 63 -15 64 6 4 50
-51 36 -58 39 -71 25z m80 -51 c0 -5 -9 -10 -21 -10 -11 0 -17 5 -14 10 3 6
13 10 21 10 8 0 14 -4 14 -10z"/>
<path d="M4530 2261 c0 -23 24 -71 35 -71 22 0 24 13 10 48 -12 28 -45 46 -45
23z"/>
<path d="M3450 2188 c19 -5 43 -14 52 -19 24 -12 28 -11 28 5 0 16 -31 26 -80
25 l-35 -1 35 -10z"/>
<path d="M3483 2012 c-16 -10 -33 -56 -24 -70 11 -18 56 -21 90 -5 25 13 30
20 25 37 -4 11 -11 27 -16 34 -11 13 -56 16 -75 4z m51 -31 c8 -13 -21 -34
-39 -27 -20 7 -8 36 15 36 11 0 21 -4 24 -9z"/>
<path d="M3242 1994 c-20 -8 -31 -18 -26 -25 5 -8 9 -8 14 1 5 8 19 11 39 7
16 -4 33 -2 36 3 3 6 0 10 -9 10 -8 0 -16 4 -18 9 -2 5 -18 3 -36 -5z"/>
<path d="M3415 1910 c3 -5 8 -10 11 -10 2 0 4 5 4 10 0 6 -5 10 -11 10 -5 0
-7 -4 -4 -10z"/>
<path d="M3605 1870 c-8 -14 3 -30 21 -30 8 0 14 9 14 20 0 21 -24 28 -35 10z"/>
<path d="M2008 1703 c6 -2 18 -2 25 0 6 3 1 5 -13 5 -14 0 -19 -2 -12 -5z"/>
<path d="M6010 1706 c0 -2 7 -9 15 -16 12 -10 15 -10 15 4 0 9 -7 16 -15 16
-8 0 -15 -2 -15 -4z"/>
<path d="M2093 1693 c9 -2 25 -2 35 0 9 3 1 5 -18 5 -19 0 -27 -2 -17 -5z"/>
<path d="M1945 1680 c-3 -5 -2 -11 2 -13 16 -10 240 -38 728 -92 275 -30 524
-57 553 -61 32 -3 52 -2 52 5 0 23 9 22 -745 105 -275 31 -519 58 -542 61 -23
2 -45 0 -48 -5z"/>
<path d="M2200 1679 c164 -25 1003 -119 1061 -119 29 0 39 4 39 16 0 13 -10
15 -62 9 -37 -4 -120 0 -198 9 -666 76 -847 96 -869 95 -14 -1 -1 -5 29 -10z"/>
<path d="M6660 1650 c0 -6 7 -10 15 -10 8 0 15 2 15 4 0 2 -7 6 -15 10 -8 3
-15 1 -15 -4z"/>
<path d="M6623 1626 c4 -10 0 -12 -14 -9 -14 4 -19 0 -19 -16 l0 -21 34 22
c34 23 38 38 9 38 -9 0 -13 -6 -10 -14z"/>
<path d="M1880 1598 c-188 -115 -334 -306 -390 -510 -29 -109 -41 -231 -29
-308 5 -36 11 -74 13 -85 3 -22 5 -27 53 -140 18 -44 44 -96 57 -115 56 -86
59 -96 16 -50 -41 44 -41 44 -23 10 10 -19 56 -73 103 -120 98 -99 198 -157
326 -190 161 -41 357 -15 525 70 l40 21 84 -26 84 -25 3 -38 c3 -36 5 -37 59
-51 56 -14 56 -14 95 14 81 60 101 87 119 155 25 103 35 122 93 182 30 31 65
73 78 95 58 95 56 91 44 146 -26 120 -36 135 -110 172 -42 21 -80 49 -97 72
l-28 37 -10 -65 -11 -64 -12 95 c-7 52 -17 131 -23 175 -6 44 -21 112 -34 152
-16 50 -19 73 -11 77 6 2 2 11 -11 21 -13 9 -23 26 -23 38 0 38 -102 170 -152
198 -9 5 -80 16 -156 24 -77 8 -213 23 -303 34 -311 37 -306 37 -369 -1z m545
-80 c86 -25 140 -56 210 -120 54 -49 75 -90 90 -180 4 -20 18 -46 31 -59 30
-28 31 -49 3 -49 -19 0 -20 -4 -14 -41 7 -41 6 -42 -16 -35 -207 58 -488 116
-563 116 -32 0 -51 -8 -81 -32 l-40 -33 60 -5 59 -5 -51 -31 c-73 -46 -108
-108 -108 -194 1 -105 55 -186 140 -210 121 -34 244 54 276 195 10 46 10 64
-3 110 -8 30 -13 55 -11 55 2 0 45 -20 96 -44 51 -24 107 -44 126 -44 42 -1
49 -8 27 -30 -14 -12 -20 -14 -23 -4 -8 20 -33 14 -33 -9 0 -28 19 -61 31 -54
5 4 9 -3 9 -14 0 -24 -4 -25 -30 -11 -15 8 -20 6 -25 -10 -7 -24 12 -53 30
-46 8 3 10 -4 7 -22 -3 -15 -7 -21 -9 -14 -3 6 -11 12 -19 12 -8 0 -15 6 -15
13 -1 6 -4 -1 -8 -18 -7 -30 13 -60 31 -49 5 3 8 -4 8 -15 0 -26 -7 -26 -48
-1 -18 11 -38 20 -45 20 -7 0 -30 9 -52 20 -56 29 -79 25 -151 -21 -63 -41
-63 -41 -111 -155 -50 -121 -50 -121 -113 -105 -19 6 -54 15 -77 21 l-42 10
35 102 c19 56 34 110 34 121 0 10 -11 43 -25 73 -14 30 -25 59 -25 64 0 16
-84 49 -142 55 -32 4 -58 8 -58 9 0 2 18 51 40 110 45 120 45 118 28 115 -7
-1 -22 2 -32 6 -14 6 -23 3 -32 -10 -23 -31 -18 -48 12 -42 19 3 24 1 20 -10
-3 -8 -6 -18 -6 -22 0 -5 -12 -6 -26 -3 -16 3 -30 -1 -35 -9 -15 -25 -10 -32
21 -26 27 6 28 4 21 -15 -5 -15 -17 -22 -35 -23 -24 0 -45 -18 -46 -37 0 -13
35 -9 49 5 10 10 11 6 5 -18 -4 -16 -8 -31 -9 -33 -5 -6 -65 11 -65 19 0 11
77 219 90 241 7 13 2 21 -25 40 -46 31 -49 41 -24 97 25 59 71 105 123 121 25
8 62 35 100 75 51 51 73 66 126 83 106 35 217 35 335 0z m-168 -484 c9 -23
-11 -38 -26 -20 -13 16 -7 36 10 36 5 0 12 -7 16 -16z m-152 -59 c0 -10 -5
-20 -11 -22 -13 -4 -27 24 -18 38 9 15 29 4 29 -16z m255 -65 c0 -11 -4 -20
-10 -20 -5 0 -10 2 -10 4 0 2 -3 11 -6 20 -4 11 -1 16 10 16 9 0 16 -8 16 -20z
m-166 -5 c-4 -9 -1 -15 7 -15 13 0 -19 -29 -33 -30 -10 0 -10 44 -1 53 13 13
32 7 27 -8z m-131 -78 c3 -8 1 -20 -4 -28 -8 -12 -10 -12 -19 1 -5 8 -10 21
-10 28 0 16 27 16 33 -1z m985 -9 c-6 -18 -28 -21 -28 -4 0 9 7 16 16 16 9 0
14 -5 12 -12z m-732 -59 c10 -17 -13 -36 -27 -22 -12 12 -4 33 11 33 5 0 12
-5 16 -11z m730 -101 c-4 -46 -11 -99 -16 -118 -5 -23 -6 -9 -2 40 4 41 7 94
7 118 0 23 4 42 9 42 5 0 6 -36 2 -82z m-886 41 c0 -19 -1 -19 -16 -5 -8 9
-12 20 -9 26 9 15 25 2 25 -21z m230 -23 c0 -3 -4 -8 -10 -11 -5 -3 -10 -1
-10 4 0 6 5 11 10 11 6 0 10 -2 10 -4z m50 -10 c0 -2 -7 -7 -16 -10 -8 -3 -12
-2 -9 4 6 10 25 14 25 6z m10 -26 c0 -5 -8 -10 -17 -10 -15 0 -16 2 -3 10 19
12 20 12 20 0z m384 -258 c-4 -19 -14 -32 -27 -36 -12 -3 -22 -4 -24 -2 -4 3
51 75 55 72 1 -2 -1 -17 -4 -34z m152 -46 c-8 -20 -18 -36 -21 -36 -3 0 2 16
10 36 8 20 15 39 15 42 0 3 3 3 6 0 3 -3 -2 -22 -10 -42z"/>
<path d="M1942 1264 c-29 -25 -69 -67 -88 -92 l-35 -46 37 -18 c21 -10 38 -17
39 -15 1 1 12 23 24 49 12 26 37 60 54 75 53 48 61 61 47 78 -7 8 -15 15 -19
15 -3 0 -30 -21 -59 -46z"/>
<path d="M1925 1110 c-11 -17 5 -30 36 -30 16 0 29 5 29 13 0 8 4 7 10 -3 8
-12 10 -11 10 8 0 19 -5 22 -39 22 -22 0 -43 -4 -46 -10z"/>
<path d="M1942 999 c-5 -11 -12 -21 -17 -22 -5 -1 -8 -16 -6 -33 2 -24 -4 -37
-26 -54 -15 -13 -20 -20 -10 -17 19 7 24 -9 5 -16 -7 -3 -3 -6 10 -6 17 -1 27
8 38 36 9 20 13 44 11 54 -3 10 -2 19 3 21 4 2 10 15 14 31 8 32 -11 38 -22 6z"/>
<path d="M6156 1604 c-5 -14 -4 -15 9 -4 17 14 19 20 6 20 -5 0 -12 -7 -15
-16z"/>
<path d="M6552 1586 c6 -7 -26 -46 -38 -46 -3 0 -12 -7 -20 -15 -23 -22 -5
-18 33 8 37 25 48 43 30 53 -7 4 -9 4 -5 0z"/>
<path d="M6325 1530 c3 -5 8 -10 11 -10 2 0 4 5 4 10 0 6 -5 10 -11 10 -5 0
-7 -4 -4 -10z"/>
<path d="M6265 1520 c3 -5 8 -10 11 -10 2 0 4 5 4 10 0 6 -5 10 -11 10 -5 0
-7 -4 -4 -10z"/>
<path d="M3818 1466 c-48 -17 -121 -60 -139 -82 -12 -15 -12 -17 0 -9 9 5 12
4 7 -3 -4 -6 -13 -9 -20 -6 -7 3 -19 -3 -27 -12 -12 -15 -12 -17 0 -9 10 5 12
4 7 -4 -4 -6 -12 -9 -17 -6 -5 3 -21 -6 -36 -20 -16 -14 -64 -45 -108 -68
-102 -53 -189 -136 -205 -198 -30 -111 41 -265 152 -329 93 -53 188 -33 339
69 47 33 119 73 159 90 95 41 189 108 226 163 25 37 29 52 29 108 -1 56 -6 75
-39 138 -45 84 -111 157 -161 178 -42 17 -118 18 -167 0z m-18 -46 c0 -5 -5
-10 -11 -10 -13 0 -92 -63 -163 -129 -29 -28 -44 -37 -37 -24 10 19 45 52 156
147 31 26 55 33 55 16z m303 -94 c-4 -5 -13 1 -22 14 -9 14 -29 40 -45 60 -20
24 -13 19 22 -14 28 -27 48 -54 45 -60z m-283 -2 c0 -8 -7 -14 -15 -14 -15 0
-21 21 -9 33 10 9 24 -2 24 -19z m165 -13 c-14 -11 -202 -132 -243 -154 -38
-21 -57 -13 -65 28 -5 30 16 34 51 10 20 -15 25 -14 84 27 95 64 212 125 173
89z m80 -1 c3 -5 1 -10 -4 -10 -6 0 -11 5 -11 10 0 6 2 10 4 10 3 0 8 -4 11
-10z m75 -42 c28 -63 24 -80 -5 -22 -25 49 -30 64 -20 64 4 0 15 -19 25 -42z
m-50 12 c0 -5 -5 -10 -11 -10 -5 0 -7 5 -4 10 3 6 8 10 11 10 2 0 4 -4 4 -10z
m-26 -71 c-15 -16 -32 -29 -36 -29 -5 0 -17 -8 -28 -18 -10 -9 -54 -36 -97
-58 -44 -23 -77 -46 -76 -51 2 -6 -8 -13 -22 -15 -14 -3 -25 -2 -25 1 0 8 66
60 88 69 49 19 212 128 213 142 0 11 2 12 6 2 3 -8 -7 -27 -23 -43z m-419 31
c3 -5 4 -14 0 -20 -8 -13 -35 -1 -35 16 0 16 26 19 35 4z m370 -10 c-3 -5 -16
-15 -28 -21 -19 -9 -19 -8 3 10 28 23 34 26 25 11z m-435 -84 c-12 -12 -25 0
-35 34 l-7 25 26 -24 c18 -17 23 -28 16 -35z m45 35 c-3 -6 -11 -11 -16 -11
-5 0 -4 6 3 14 14 16 24 13 13 -3z m-104 -34 c-13 -13 -26 -3 -16 12 3 6 11 8
17 5 6 -4 6 -10 -1 -17z m114 -18 c4 -6 14 -8 22 -5 16 7 43 -10 43 -25 0 -5
-5 -9 -11 -9 -5 0 -7 5 -3 11 4 7 -2 9 -17 7 -17 -2 -23 -9 -21 -23 2 -12 0
-16 -5 -9 -4 7 -17 13 -27 15 -11 2 -21 9 -23 16 -3 7 3 9 16 6 22 -6 29 12 9
20 -10 4 -10 6 -1 6 6 1 15 -4 18 -10z m-135 -8 c0 -5 -11 -11 -25 -13 -20 -4
-23 -3 -14 8 13 16 39 19 39 5z m78 -34 c2 -10 -3 -17 -12 -17 -18 0 -29 16
-21 31 9 14 29 6 33 -14z m-68 -17 c-6 -12 -14 -20 -17 -17 -2 3 1 14 8 26 17
26 24 19 9 -9z m-80 10 c0 -5 -5 -10 -11 -10 -5 0 -7 5 -4 10 3 6 8 10 11 10
2 0 4 -4 4 -10z m237 -22 c-3 -8 -6 -5 -6 6 -1 11 2 17 5 13 3 -3 4 -12 1 -19z
m328 -8 c-5 -8 -11 -8 -17 -2 -6 6 -7 16 -3 22 5 8 11 8 17 2 6 -6 7 -16 3
-22z m-445 0 c0 -5 -2 -10 -4 -10 -3 0 -8 5 -11 10 -3 6 -1 10 4 10 6 0 11 -4
11 -10z m195 -61 c0 -21 -3 -39 -7 -39 -5 0 -8 5 -8 10 0 6 -4 10 -10 10 -5 0
-10 -7 -10 -16 0 -8 -4 -13 -10 -9 -13 8 -1 37 23 57 19 14 19 18 7 35 -12 16
-12 16 0 5 9 -7 15 -31 15 -53z m-262 24 c6 -33 -8 -52 -25 -35 -9 9 -9 15 -1
23 6 6 9 18 6 25 -3 8 -1 14 5 14 5 0 12 -12 15 -27z m43 -11 c-4 -3 -12 0
-19 7 -9 9 -9 14 3 21 11 7 16 5 18 -6 2 -9 1 -18 -2 -22z m594 23 c-7 -9 -39
-32 -72 -52 -42 -26 -55 -39 -46 -45 9 -6 6 -7 -8 -3 -11 3 -51 -6 -88 -20
-36 -14 -71 -25 -77 -25 -20 0 1 18 29 23 15 3 65 23 110 43 58 27 82 44 82
56 0 20 16 25 22 7 2 -6 14 -2 28 10 30 24 37 27 20 6z m-523 -1 c-3 -3 -12
-4 -19 -1 -8 3 -5 6 6 6 11 1 17 -2 13 -5z m53 -4 c0 -5 -4 -10 -10 -10 -5 0
-10 5 -10 10 0 6 5 10 10 10 6 0 10 -4 10 -10z m190 -18 c0 -13 -12 -22 -22
-16 -10 6 -1 24 13 24 5 0 9 -4 9 -8z m-407 -38 c-4 -10 -9 -12 -15 -6 -12 12
-1 35 12 27 5 -3 6 -13 3 -21z m154 11 c3 -9 3 -19 -1 -22 -7 -7 -36 16 -36
28 0 15 30 10 37 -6z m47 -10 c-4 -8 -10 -15 -15 -15 -4 0 -6 7 -3 15 4 8 10
15 15 15 4 0 6 -7 3 -15z m-134 -20 c-6 -8 -9 -23 -5 -35 9 -28 -11 -50 -44
-49 l-26 1 25 7 c25 7 24 8 -7 15 -18 4 -33 11 -33 16 0 16 31 40 51 40 10 0
19 5 19 10 0 6 7 10 16 10 13 0 14 -3 4 -15z m282 -17 c-6 -6 -15 -8 -19 -4
-4 4 -1 11 7 16 19 12 27 3 12 -12z m66 -1 c2 -10 -3 -17 -12 -17 -10 0 -16 9
-16 21 0 24 23 21 28 -4z m-160 -10 c2 -10 -3 -17 -12 -17 -10 0 -16 9 -16 21
0 24 23 21 28 -4z m-308 3 c0 -5 -2 -10 -4 -10 -3 0 -8 5 -11 10 -3 6 -1 10 4
10 6 0 11 -4 11 -10z m260 0 c0 -5 -4 -10 -10 -10 -5 0 -10 5 -10 10 0 6 5 10
10 10 6 0 10 -4 10 -10z m-110 -10 c0 -5 -4 -10 -10 -10 -5 0 -10 5 -10 10 0
6 5 10 10 10 6 0 10 -4 10 -10z m72 -5 c0 -5 -5 -11 -11 -13 -6 -2 -11 4 -11
13 0 9 5 15 11 13 6 -2 11 -8 11 -13z m156 -10 c9 -20 9 -25 -2 -25 -18 0 -39
27 -31 40 10 16 21 12 33 -15z m-184 -20 c25 -19 19 -25 -16 -18 -16 3 -28 12
-28 19 0 18 20 17 44 -1z m66 -5 c0 -5 -4 -10 -10 -10 -5 0 -10 5 -10 10 0 6
5 10 10 10 6 0 10 -4 10 -10z m-120 -30 c0 -5 -7 -10 -16 -10 -8 0 -12 5 -9
10 3 6 10 10 16 10 5 0 9 -4 9 -10z"/>
<path d="M4526 1461 c-16 -18 -16 -20 12 -40 31 -22 51 -25 89 -15 36 10 36
33 0 54 -40 25 -79 25 -101 1z"/>
<path d="M4904 1471 c4 -5 3 -11 -1 -14 -5 -2 -2 -2 5 0 18 4 64 -48 97 -109
l27 -50 -19 -27 c-20 -26 -20 -26 -1 -41 19 -15 19 -16 -10 -56 -16 -22 -52
-57 -80 -77 -53 -39 -88 -102 -77 -138 10 -29 -3 -23 -59 29 -29 26 -124 90
-212 141 -154 92 -205 130 -216 161 -3 8 -8 12 -12 9 -8 -8 27 -109 51 -145
10 -16 56 -74 102 -129 45 -55 107 -134 137 -176 70 -99 132 -156 179 -165
101 -19 248 34 349 127 94 85 95 149 8 277 -21 31 -66 111 -100 177 -41 81
-77 136 -109 168 -41 42 -74 63 -59 38z m156 -240 c0 -21 -16 -2 -25 29 -7 24
-7 24 9 5 8 -11 16 -27 16 -34z m36 -92 c4 -22 11 -42 15 -45 5 -3 9 -18 9
-33 0 -24 -5 -30 -32 -35 -21 -4 -37 -1 -48 9 -9 8 -22 15 -28 15 -19 0 -14
-25 8 -45 16 -15 25 -16 43 -8 47 23 57 23 57 2 0 -15 -5 -19 -15 -15 -13 5
-14 2 -4 -15 10 -20 9 -21 -22 -14 -18 4 -47 15 -65 25 -23 13 -35 15 -43 7
-7 -7 -7 -14 0 -24 14 -16 3 -47 -12 -37 -8 4 -9 3 -5 -4 4 -7 18 -9 32 -6 20
5 24 2 24 -15 0 -17 -6 -21 -36 -21 -50 0 -69 13 -94 64 l-21 45 21 41 c17 33
32 47 75 65 44 20 54 29 57 52 3 32 38 46 39 16 0 -15 2 -15 11 4 15 30 27 20
34 -28z"/>
<path d="M5052 1111 c-20 -12 11 -83 33 -75 15 6 12 42 -5 54 -4 3 -9 10 -11
17 -2 8 -9 9 -17 4z"/>
<path d="M4962 1060 c0 -14 2 -19 5 -12 2 6 2 18 0 25 -3 6 -5 1 -5 -13z"/>
<path d="M4920 1011 c0 -6 4 -13 10 -16 6 -3 7 1 4 9 -7 18 -14 21 -14 7z"/>
<path d="M4825 1420 c-3 -5 -20 -7 -38 -5 -22 3 -26 2 -12 -3 11 -5 36 -15 55
-24 19 -8 53 -18 75 -21 l40 -6 -40 34 c-40 35 -69 44 -80 25z"/>
<path d="M4900 1420 c0 -5 5 -10 10 -10 6 0 10 5 10 10 0 6 -4 10 -10 10 -5 0
-10 -4 -10 -10z"/>
<path d="M4840 1340 c0 -5 7 -10 16 -10 8 0 12 5 9 10 -3 6 -10 10 -16 10 -5
0 -9 -4 -9 -10z"/>
<path d="M4944 1340 c-12 -5 -25 -14 -29 -20 -4 -7 7 -4 24 4 17 9 31 19 31
21 0 6 1 6 -26 -5z"/>
<path d="M4730 1298 l-25 -11 25 -5 c14 -2 30 -8 37 -13 16 -14 27 9 13 26
-14 17 -17 17 -50 3z"/>
<path d="M4926 1294 c-5 -14 -2 -15 21 -9 16 3 38 7 51 8 40 3 23 17 -22 17
-31 0 -46 -5 -50 -16z"/>
<path d="M4800 1252 c0 -25 33 -49 78 -58 25 -5 32 -3 32 9 0 27 -34 58 -72
64 -34 5 -38 3 -38 -15z"/>
<path d="M4967 1213 c-12 -11 -7 -33 7 -33 12 0 26 20 26 36 0 7 -26 5 -33 -3z"/>
<path d="M4840 1145 c0 -2 9 -19 20 -37 l21 -33 -7 30 c-4 17 -9 33 -11 38 -5
8 -23 10 -23 2z"/>
<path d="M4817 1077 c-5 -14 9 -45 16 -37 3 3 8 15 11 28 5 16 3 22 -7 22 -8
0 -17 -6 -20 -13z"/>
<path d="M4360 884 c0 -5 18 -29 39 -54 l39 -44 41 18 c43 20 53 44 27 65 -11
9 -24 8 -57 -3 -41 -14 -45 -14 -66 6 -13 12 -23 17 -23 12z"/>
<path d="M3844 789 c-7 -11 25 -79 38 -79 18 0 19 25 2 56 -19 36 -28 41 -40
23z"/>
<path d="M5588 749 c-15 -4 -43 -16 -61 -28 -41 -25 -236 -82 -377 -109 -238
-47 -352 -57 -660 -57 -262 0 -301 2 -348 19 -100 34 -189 -3 -259 -108 -88
-130 -82 -322 13 -405 63 -56 92 -55 384 17 287 71 581 121 588 101 5 -12 30
-11 34 1 5 17 204 31 458 31 135 0 268 -3 295 -6 88 -10 163 4 200 37 96 84
82 277 -29 413 -60 72 -166 115 -238 94z m110 -124 c60 -26 101 -73 123 -145
7 -25 7 -25 9 5 l2 30 9 -35 c10 -38 3 -104 -10 -96 -4 3 -14 -5 -21 -18 -39
-75 -148 -60 -206 27 -26 39 -26 84 -2 115 14 16 28 15 28 -3 0 -9 6 -12 15
-9 20 8 19 24 -1 24 -10 0 -14 6 -10 15 4 10 -1 15 -14 15 -11 0 -24 9 -30 21
-14 24 8 55 44 62 11 2 22 5 24 6 1 0 19 -6 40 -14z m-401 -121 c4 -12 -99
-48 -182 -63 -82 -15 -396 -49 -525 -56 -86 -6 -109 -4 -125 8 -19 15 -19 16
19 32 43 18 215 45 446 70 85 9 164 17 175 19 45 8 189 0 192 -10z m-922 -14
c-22 -5 -51 -9 -65 -8 l-25 0 25 7 c14 4 43 8 65 8 l40 1 -40 -8z m-322 -50
c-21 -24 -27 -26 -19 -5 5 13 2 13 -19 -1 -23 -15 -37 -53 -15 -39 6 3 10 -3
10 -14 0 -12 -4 -21 -10 -21 -5 0 -8 -13 -7 -30 1 -16 5 -30 9 -30 17 0 78
-72 78 -92 0 -17 2 -18 15 -8 33 27 24 1 -10 -29 -46 -40 -84 -41 -126 -3 -63
56 -48 196 27 262 19 16 46 30 59 30 24 0 24 -1 8 -20z m1432 -50 c3 -5 1 -10
-4 -10 -6 0 -11 5 -11 10 0 6 2 10 4 10 3 0 8 -4 11 -10z m-467 -27 c-10 -2
-26 -2 -35 0 -10 3 -2 5 17 5 19 0 27 -2 18 -5z m-59 -7 c-2 -2 -42 -6 -89 -9
-49 -3 -70 -2 -50 3 36 8 147 13 139 6z m-864 -26 c3 -5 2 -10 -4 -10 -5 0
-13 5 -16 10 -3 6 -2 10 4 10 5 0 13 -4 16 -10z m653 3 c-10 -2 -26 -2 -35 0
-10 3 -2 5 17 5 19 0 27 -2 18 -5z m-698 -18 c-10 -12 -10 -15 4 -15 9 0 16
-4 16 -10 0 -13 -27 -13 -35 0 -9 15 1 40 16 40 8 0 8 -4 -1 -15z m618 8 c-10
-2 -28 -2 -40 0 -13 2 -5 4 17 4 22 1 32 -1 23 -4z m-80 -10 c-10 -2 -28 -2
-40 0 -13 2 -5 4 17 4 22 1 32 -1 23 -4z m-75 -10 c-7 -2 -21 -2 -30 0 -10 3
-4 5 12 5 17 0 24 -2 18 -5z m-70 -10 c-7 -2 -19 -2 -25 0 -7 3 -2 5 12 5 14
0 19 -2 13 -5z m-68 -13 c-16 -4 -46 -8 -65 -9 -20 0 -41 -6 -48 -13 -9 -9
-12 -8 -12 4 0 17 33 24 120 25 l35 1 -30 -8z m1355 -50 c13 -9 13 -10 0 -10
-8 0 -22 5 -30 10 -13 9 -13 10 0 10 8 0 22 -5 30 -10z"/>
<path d="M5680 493 c-8 -2 -22 -7 -30 -11 -8 -3 -22 -6 -30 -7 -8 0 -14 -6
-12 -13 1 -7 -2 -12 -8 -12 -17 0 -11 -26 10 -45 17 -15 20 -16 20 -2 0 10 6
13 21 10 12 -4 25 0 30 8 13 20 11 29 -6 29 -22 0 -18 18 5 25 11 3 20 11 20
16 0 5 -1 9 -2 8 -2 0 -10 -3 -18 -6z"/>
<path d="M5831 424 c0 -11 3 -14 6 -6 3 7 2 16 -1 19 -3 4 -6 -2 -5 -13z"/>
</g>
</svg>
